<?xml version="1.0" encoding="UTF-8" standalone="no"?>
<!-- Created with Inkscape (http://www.inkscape.org/) -->

<svg
   width="355"
   height="100"
   viewBox="0 0 93.927082 26.458333"
   version="1.1"
   id="svg5"
   xml:space="preserve"
   inkscape:version="1.2.1 (9c6d41e410, 2022-07-14)"
   sodipodi:docname="logo.svg"
   xmlns:inkscape="http://www.inkscape.org/namespaces/inkscape"
   xmlns:sodipodi="http://sodipodi.sourceforge.net/DTD/sodipodi-0.dtd"
   xmlns="http://www.w3.org/2000/svg"
   xmlns:svg="http://www.w3.org/2000/svg"><sodipodi:namedview
     id="namedview7"
     pagecolor="#ffffff"
     bordercolor="#000000"
     borderopacity="0.25"
     inkscape:showpageshadow="2"
     inkscape:pageopacity="0.0"
     inkscape:pagecheckerboard="0"
     inkscape:deskcolor="#d1d1d1"
     inkscape:document-units="mm"
     showgrid="false"
     inkscape:zoom="0.46769781"
     inkscape:cx="110.11384"
     inkscape:cy="220.22767"
     inkscape:window-width="1366"
     inkscape:window-height="705"
     inkscape:window-x="-8"
     inkscape:window-y="-8"
     inkscape:window-maximized="1"
     inkscape:current-layer="layer1" /><defs
     id="defs2" /><g
     inkscape:label="Layer 1"
     inkscape:groupmode="layer"
     id="layer1"><g
       id="g1591"
       inkscape:export-filename="g1591.svg"
       inkscape:export-xdpi="96"
       inkscape:export-ydpi="96"
       transform="translate(-68.802506,-154.75143)"><path
         style="fill:#020202;stroke-width:0.264583"
         d="m 68.802506,167.45143 v -12.7 h 46.037504 46.0375 v 12.7 12.7 h -46.0375 -46.037504 z m 91.281254,0 V 155.54518 H 114.70772 69.331673 v 11.90625 11.90625 h 45.376047 45.37604 z m -88.900004,0 v -10.31875 h 21.82813 21.828124 v 10.31875 10.31875 H 93.011886 71.183756 Z m 7.994065,0.88999 0.07573,-2.54959 1.793703,2.54959 c 0.986539,1.40227 1.968804,2.54959 2.182812,2.54959 0.322469,0 0.38911,-0.58908 0.38911,-3.43958 0,-2.88102 -0.06445,-3.43959 -0.396875,-3.43959 -0.326827,0 -0.396875,0.47612 -0.396875,2.69751 v 2.6975 l -1.905879,-2.6975 c -2.645775,-3.74473 -2.856621,-3.68995 -2.856621,0.74208 0,3.24205 0.02984,3.43958 0.519586,3.43958 0.475205,0 0.526052,-0.21777 0.595312,-2.54959 z m 12.480745,1.99706 c 3.42211,-2.69183 0.36032,-7.87378 -3.613623,-6.11592 -2.297049,1.0161 -2.76352,4.07688 -0.883851,5.79947 0.826106,0.75706 1.131546,0.86898 2.37164,0.86898 1.042842,0 1.611215,-0.14773 2.125834,-0.55253 z m -3.586186,-0.64591 c -0.964792,-0.52395 -1.418423,-1.94063 -1.013894,-3.16636 0.392232,-1.18848 1.169681,-1.72062 2.513812,-1.72062 1.379704,0 2.157448,0.5592 2.536268,1.8236 0.72714,2.42698 -1.748355,4.30584 -4.036186,3.06338 z m 11.493986,-2.21078 c 0.699984,-1.79937 1.213354,-3.33093 1.140834,-3.40345 -0.39305,-0.39305 -0.922894,0.41603 -1.854554,2.83196 l -1.0384,2.69271 -1.09265,-2.72858 c -0.76535,-1.91123 -1.23861,-2.7567 -1.57989,-2.82242 -0.32589,-0.0628 -0.43876,0.0246 -0.34084,0.26373 0.16945,0.41387 1.99519,5.08788 2.34338,5.99921 0.48785,1.27688 1.1033,0.55698 2.42212,-2.83316 z m 3.712964,2.61547 c 0.28891,-0.76541 0.35869,-0.79375 1.9546,-0.79375 1.57128,0 1.67575,0.0402 2.06546,0.79375 0.38814,0.75059 1.39364,1.16717 1.11757,0.46302 -1.80858,-4.613 -2.73009,-6.54844 -3.11785,-6.54844 -0.31382,0 -0.79179,0.8595 -1.65528,2.97657 -1.70234,4.17367 -1.62508,3.9026 -1.11227,3.9026 0.25499,0 0.5773,-0.34213 0.74777,-0.79375 z m 0.78772,-1.91823 c 0.82488,-2.07355 1.07537,-2.57969 1.27669,-2.57969 0.12972,0 0.23585,0.0551 0.23585,0.1225 0,0.0674 0.23639,0.72222 0.52531,1.45521 l 0.52531,1.33271 h -1.34737 c -0.97167,0 -1.31067,-0.0922 -1.21579,-0.33073 z m 32.18876,2.45056 c -1.90276,-0.54777 -2.63038,-1.57698 -2.63038,-3.72065 0,-1.1904 0.111,-1.47351 0.87871,-2.24123 1.17346,-1.17346 2.4992,-1.41932 4.08483,-0.75754 0.82777,0.34548 1.34715,0.78287 1.69162,1.42459 l 0.49709,0.92604 -0.93411,0.0824 c -0.6375,0.0562 -1.15427,-0.0908 -1.62743,-0.46302 -0.89932,-0.7074 -1.29756,-0.68756 -2.0892,0.10407 -0.77177,0.77177 -0.82343,1.45831 -0.17042,2.26474 0.56802,0.70148 1.71294,0.77874 2.39486,0.16161 0.4424,-0.40037 2.4178,-0.62287 2.4178,-0.27234 0,0.0867 -0.19473,0.48727 -0.43274,0.89018 -0.74888,1.26776 -2.649,2.01335 -4.08063,1.60121 z m 8.08524,0.005 c -1.89899,-0.43321 -2.77812,-1.52432 -2.77812,-3.44796 0,-1.95996 1.04742,-3.21501 2.98678,-3.57884 2.15023,-0.40338 4.15691,1.09216 4.34164,3.23574 0.22095,2.56393 -1.96097,4.38179 -4.5503,3.79107 z m 2.09777,-2.27624 c 0.49886,-0.49886 0.54323,-1.69749 0.085,-2.2973 -0.18191,-0.23813 -0.65216,-0.51042 -1.04502,-0.60508 -0.5539,-0.13347 -0.86581,-0.0206 -1.38907,0.50266 -0.77521,0.77521 -0.84801,1.39207 -0.26289,2.22745 0.49502,0.70674 1.97955,0.80465 2.61193,0.17227 z m -26.30714,-1.17172 v -3.43958 l 2.05052,0.001 c 1.56679,7.9e-4 2.25034,0.12282 2.89757,0.51746 1.14968,0.701 1.76033,1.9472 1.58709,3.23886 -0.29993,2.23604 -1.62622,3.12179 -4.6746,3.12179 h -1.86058 z m 4.01406,1.14962 c 0.59361,-0.53721 0.62947,-1.75995 0.0681,-2.32134 -0.22867,-0.22868 -0.82399,-0.41578 -1.32292,-0.41578 h -0.90714 v 1.5875 1.5875 h 0.83906 c 0.46149,0 1.0568,-0.19704 1.32292,-0.43788 z m 3.65885,-1.14962 v -3.43958 h 2.38125 2.38125 v 0.79375 c 0,0.77611 -0.0294,0.79375 -1.32291,0.79375 -1.14653,0 -1.32292,0.0706 -1.32292,0.52917 0,0.45077 0.17639,0.52916 1.19063,0.52916 1.14652,0 1.19062,0.0294 1.19062,0.79375 0,0.76435 -0.0441,0.79375 -1.19062,0.79375 -1.01424,0 -1.19063,0.0784 -1.19063,0.52917 0,0.45861 0.17639,0.52917 1.32292,0.52917 1.29352,0 1.32291,0.0177 1.32291,0.79375 v 0.79374 h -2.38125 -2.38125 z m 22.22501,0 v -3.43958 h 1.99751 c 2.08405,0 3.35822,0.41874 3.65896,1.20248 0.32069,0.8357 0.15733,2.18715 -0.33837,2.79932 -0.49391,0.60996 -0.49391,0.63812 0,1.60627 0.2765,0.54199 0.50273,1.0497 0.50273,1.12826 0,0.0786 -0.47818,0.14283 -1.06262,0.14283 -0.95391,0 -1.10778,-0.0947 -1.50421,-0.92604 -0.24288,-0.50932 -0.59814,-0.92604 -0.78947,-0.92604 -0.22117,0 -0.34787,0.33726 -0.34787,0.92604 0,0.904 -0.0252,0.92604 -1.05833,0.92604 h -1.05833 z m 3.09055,-0.16198 c 1.27711,-0.34251 0.89668,-1.6901 -0.47712,-1.6901 -0.65961,0 -0.76135,0.10018 -0.76135,0.74965 0,1.07853 0.18887,1.22195 1.23847,0.94045 z"
         id="path1584" /></g></g></svg>
